<svg id="Icons" height="512" viewBox="0 0 74 74" width="512" xmlns="http://www.w3.org/2000/svg"><path d="m71 37.477a1 1 0 0 1 -1-1v-12.726a2.742 2.742 0 0 0 -2.739-2.739h-24.282a1 1 0 0 1 0-2h24.282a4.744 4.744 0 0 1 4.739 4.739v12.726a1 1 0 0 1 -1 1z"/><path d="m67.261 70.31h-55.78a9.492 9.492 0 0 1 -9.481-9.482v-48.477a1 1 0 0 1 2 0v48.477a7.49 7.49 0 0 0 7.481 7.482h55.78a2.742 2.742 0 0 0 2.739-2.739v-13.771a1 1 0 0 1 2 0v13.771a4.744 4.744 0 0 1 -4.739 4.739z"/><path d="m71 52.8h-16.368a8.661 8.661 0 0 1 0-17.322h16.368a1 1 0 0 1 1 1v15.322a1 1 0 0 1 -1 1zm-16.368-15.323a6.661 6.661 0 0 0 0 13.322h15.368v-13.322z"/><path d="m55.727 48.421a4.284 4.284 0 1 1 4.283-4.283 4.288 4.288 0 0 1 -4.283 4.283zm0-6.567a2.284 2.284 0 1 0 2.283 2.284 2.287 2.287 0 0 0 -2.283-2.284z"/><path d="m42.979 21.012h-32.318a8.661 8.661 0 0 1 0-17.322h30.523a2.8 2.8 0 0 1 2.8 2.8v13.522a1 1 0 0 1 -1.005 1zm-32.318-15.322a6.661 6.661 0 0 0 0 13.322h31.318v-12.526a.8.8 0 0 0 -.8-.8z"/></svg>